<svg xmlns="http://www.w3.org/2000/svg" viewBox="0 0 100 100">
  <!-- F1 Car Body -->
  <path d="M 15 60 L 20 55 L 30 52 L 50 50 L 70 52 L 80 55 L 85 60 L 85 70 L 80 75 L 70 78 L 50 80 L 30 78 L 20 75 L 15 70 Z" fill="#E80020" stroke="#000" stroke-width="1.5"/>
  
  <!-- Front Wing -->
  <path d="M 15 60 L 20 55 L 22 58 L 17 63 Z" fill="#FFD700" stroke="#000" stroke-width="1"/>
  
  <!-- Rear Wing -->
  <path d="M 80 55 L 85 60 L 83 65 L 78 60 Z" fill="#FFD700" stroke="#000" stroke-width="1"/>
  
  <!-- Front Wheel -->
  <circle cx="30" cy="75" r="8" fill="#1a1a1a" stroke="#fff" stroke-width="1.5"/>
  <circle cx="30" cy="75" r="4" fill="#333"/>
  
  <!-- Rear Wheel -->
  <circle cx="70" cy="75" r="8" fill="#1a1a1a" stroke="#fff" stroke-width="1.5"/>
  <circle cx="70" cy="75" r="4" fill="#333"/>
  
  <!-- Cockpit -->
  <path d="M 45 55 L 55 55 L 55 65 L 45 65 Z" fill="#000" opacity="0.3"/>
  
  <!-- Air Intake -->
  <path d="M 48 52 L 52 52 L 52 54 L 48 54 Z" fill="#333"/>
</svg>

